<?xml version="1.0" encoding="UTF-8"?>
<svg xmlns="http://www.w3.org/2000/svg" viewBox="0 0 1994.54 475.21">
  <defs>
    <style>.cls-1,.cls-2,.cls-3,.cls-4{fill:#252934;}.cls-2{opacity:0.5;}.cls-3{opacity:0.25;}.cls-4{opacity:0.75;}</style>
  </defs>
  <title>smart-reporting-logo</title>
  <g id="Layer_2" data-name="Layer 2">
    <g id="Layer_1-2" data-name="Layer 1">
      <rect class="cls-1" x="324.99" y="350.18" width="75" height="75" transform="translate(724.99 775.36) rotate(180)"></rect>
      <rect class="cls-1" x="324.99" y="250.16" width="75" height="75" transform="translate(724.99 575.33) rotate(180)"></rect>
      <rect class="cls-1" x="324.99" y="150.15" width="75" height="75" transform="translate(724.99 375.29) rotate(180)"></rect>
      <rect class="cls-1" x="324.99" y="50.13" width="75" height="75" transform="translate(724.99 175.26) rotate(180)"></rect>
      <rect class="cls-1" x="425" y="250.16" width="75" height="75" transform="translate(924.99 575.33) rotate(180)"></rect>
      <rect class="cls-1" x="425" y="150.15" width="75" height="75" transform="translate(924.99 375.29) rotate(180)"></rect>
      <rect class="cls-2" x="100" y="150.09" width="75" height="75"></rect>
      <rect class="cls-2" x="100" y="250.11" width="75" height="75"></rect>
      <rect class="cls-3" y="200.1" width="75" height="75"></rect>
      <rect class="cls-4" x="200" width="100" height="100"></rect>
      <rect class="cls-4" x="200" y="125" width="100" height="100"></rect>
      <rect class="cls-4" x="200" y="250.01" width="100" height="100"></rect>
      <rect class="cls-4" x="200" y="375.21" width="100" height="100"></rect>
      <path class="cls-1" d="M642.28,152.82C616.43,145.75,604,130.88,604,108c0-28.77,22.67-51.68,67.77-51.68,23.65,0,44,6.34,56.93,13.16l-10.53,32.63c-13.07-6-30.79-10.69-48.1-10.69-16.82,0-24.38,5.61-24.38,13.66,0,7.31,4.87,10.24,15.11,13.16L690.06,127c30.47,9,44.37,22.92,44.37,45.83,0,31.94-26.82,53.88-68.26,53.88-24.63,0-48.76-8.29-59.49-14.38l8.64-33.3c14.4,5.79,33,12.57,51.58,12.57,16.57,0,25.6-6.82,25.6-15.84,0-7.32-7.32-11.22-19.26-14.63Z"></path>
      <path class="cls-1" d="M947.5,122.83l-50,60h-7.07l-49.73-60V224.25h-41V58.47h35.35l59,69.24,59-69.24h35.35V224.25h-41Z"></path>
      <path class="cls-1" d="M1106.69,58.47h48l62.9,165.78h-41.44L1165,193.78h-69.48L1084,224.25h-41.44Zm-1,105.32h49l-23.89-64.85Z"></path>
      <path class="cls-1" d="M1555.86,94.31V224.25h-41V94.31h-51V58.47h141.4V94.31Z"></path>
      <path class="cls-1" d="M1404.44,194.26l-29-32.09c23.19-6.12,39.68-24.31,39.68-49.09,0-38.76-31.45-54.61-63.63-54.61h-78.74V224.25h41V164.52l17.59-.27,50.83,60,46.31,0v-30ZM1313.66,135v-41h37.06c13.41,0,21.94,7.8,21.94,20.47,0,12.19-8.53,20.48-21.94,20.48Z"></path>
      <path class="cls-1" d="M602.47,414.23h17V277h-17V266.6h73.81q21.06,0,32.72,10.53t11.66,31.36q0,16.08-8.94,26.83t-26.16,13.93l26.5,49.13q4.52,8.16,10.19,12t14,3.85h2v10.42H723.83a38,38,0,0,1-11-1.36,26,26,0,0,1-7.81-3.85,25.13,25.13,0,0,1-6-6.34q-2.61-3.84-5.32-8.83L665.64,352H638.92v62.26h17v10.42H602.47Zm36.45-73.36h35.55q12.22,0,18.79-7.59t6.57-18.68V304.19a28,28,0,0,0-6.57-18.79q-6.57-7.69-18.79-7.7H638.92Z"></path>
      <path class="cls-1" d="M771.83,414.23h17V277h-17V266.6H888.67v38H872.36V277.7H808.29v60h44.83V319.59H866.7v47.32H853.12V348.8H808.29v64.75h66.34v-29h16.3v40.08H771.83Z"></path>
      <path class="cls-1" d="M928.7,414.23h17V277h-17V266.6h73.81q21.51,0,33,10.76t11.43,31.58q0,20.61-11.77,31.93t-33.06,11.32H965.15v62h21.51v10.42h-58Zm36.45-73.13h35.78q12.23,0,18.68-7.7t6.45-18.8V304.19q0-11.08-6.45-18.79t-18.68-7.7H965.15Z"></path>
      <path class="cls-1" d="M1151.29,427.36a70.37,70.37,0,0,1-28.53-5.66,61.13,61.13,0,0,1-22.07-16.3,74.68,74.68,0,0,1-14.15-25.7q-5-15-5-34.07t5-34.08a74.77,74.77,0,0,1,14.15-25.7,61.24,61.24,0,0,1,22.07-16.3,74.73,74.73,0,0,1,57.06,0,61.19,61.19,0,0,1,22.08,16.3,74.94,74.94,0,0,1,14.15,25.7q5,15.06,5,34.08t-5,34.07a74.85,74.85,0,0,1-14.15,25.7,61.08,61.08,0,0,1-22.08,16.3A70.3,70.3,0,0,1,1151.29,427.36Zm0-12a47.74,47.74,0,0,0,20.5-4.19,41.77,41.77,0,0,0,15-11.77,52.88,52.88,0,0,0,9.29-18,78.38,78.38,0,0,0,3.17-22.87V332.72a78.43,78.43,0,0,0-3.17-22.87,53,53,0,0,0-9.29-18,41.77,41.77,0,0,0-15-11.77,52.22,52.22,0,0,0-41,0,41.77,41.77,0,0,0-15,11.77,52.79,52.79,0,0,0-9.29,18,78.43,78.43,0,0,0-3.17,22.87v25.81a78.38,78.38,0,0,0,3.17,22.87,52.7,52.7,0,0,0,9.29,18,41.77,41.77,0,0,0,15,11.77A47.69,47.69,0,0,0,1151.29,415.36Z"></path>
      <path class="cls-1" d="M1252.8,414.23h17V277h-17V266.6h73.81q21.06,0,32.72,10.53T1371,308.49q0,16.08-8.94,26.83t-26.15,13.93l26.49,49.13q4.53,8.16,10.19,12t14,3.85h2v10.42h-14.49a38,38,0,0,1-11-1.36,26.13,26.13,0,0,1-7.81-3.85,25.13,25.13,0,0,1-6-6.34q-2.61-3.84-5.32-8.83L1316,352h-26.72v62.26h17v10.42H1252.8Zm36.45-73.36h35.55q12.23,0,18.79-7.59t6.57-18.68V304.19a28,28,0,0,0-6.57-18.79q-6.57-7.69-18.79-7.7h-35.55Z"></path>
      <path class="cls-1" d="M1444.94,414.23h21.51V277.7H1426.6v26.94h-16.3v-38h131.78v38h-16.3V277.7h-39.86V414.23h21.51v10.42h-62.49Z"></path>
      <path class="cls-1" d="M1577.42,414.23h17V277h-17V266.6h53.44V277h-17V414.23h17v10.42h-53.44Z"></path>
      <path class="cls-1" d="M1668.1,414.23h17V277h-17V266.6h38.27l84.91,126.8h.9V277h-17V266.6h46.42V277h-17V424.65h-15.17l-91-136.08h-.9V414.23h17v10.42H1668.1Z"></path>
      <path class="cls-1" d="M1917.55,427.36a63.15,63.15,0,0,1-27-5.66,58.26,58.26,0,0,1-20.72-16.19,75.86,75.86,0,0,1-13.36-25.7,114,114,0,0,1-4.76-34.18q0-19.71,4.76-35a72.5,72.5,0,0,1,13.59-25.7,56.58,56.58,0,0,1,21.39-15.73,71.62,71.62,0,0,1,28.19-5.32q18.35,0,28.31,5.09t12.68,12.11h1.13V266.6H1978v46.19h-16.3V301.7q0-12.68-10.64-19.25t-29-6.56q-12.45,0-21.62,4a39.89,39.89,0,0,0-15.17,11.21,47.57,47.57,0,0,0-8.94,17.32,80,80,0,0,0-2.95,22.53v29a71.91,71.91,0,0,0,3.28,22.3,48.69,48.69,0,0,0,9.4,17.1,42.1,42.1,0,0,0,14.72,10.87,46.11,46.11,0,0,0,19,3.85,55.14,55.14,0,0,0,16.07-2.27,38.46,38.46,0,0,0,12.91-6.57,30,30,0,0,0,8.49-10.64,33.46,33.46,0,0,0,3.06-14.72V358.76h-28.08V348.34h62.27v10.42h-14.49v65.89h-7.47l-10.87-22h-.91a34.53,34.53,0,0,1-5.43,8.95,39.93,39.93,0,0,1-8.95,7.92,46.39,46.39,0,0,1-12.56,5.66A57.12,57.12,0,0,1,1917.55,427.36Z"></path>
    </g>
  </g>
</svg>
