<?xml version="1.0" encoding="utf-8" standalone="no"?>
<!DOCTYPE svg PUBLIC "-//W3C//DTD SVG 1.1//EN"
  "http://www.w3.org/Graphics/SVG/1.1/DTD/svg11.dtd">
<svg xmlns:xlink="http://www.w3.org/1999/xlink" width="432pt" height="288pt" viewBox="0 0 432 288" xmlns="http://www.w3.org/2000/svg" version="1.1">
 <metadata>
  <rdf:RDF xmlns:dc="http://purl.org/dc/elements/1.1/" xmlns:cc="http://creativecommons.org/ns#" xmlns:rdf="http://www.w3.org/1999/02/22-rdf-syntax-ns#">
   <cc:Work>
    <dc:type rdf:resource="http://purl.org/dc/dcmitype/StillImage"/>
    <dc:date>2022-04-30T14:35:12.752428</dc:date>
    <dc:format>image/svg+xml</dc:format>
    <dc:creator>
     <cc:Agent>
      <dc:title>Matplotlib v3.5.1, https://matplotlib.org/</dc:title>
     </cc:Agent>
    </dc:creator>
   </cc:Work>
  </rdf:RDF>
 </metadata>
 <defs>
  <style type="text/css">*{stroke-linejoin: round; stroke-linecap: butt}</style>
 </defs>
 <g id="figure_1">
  <g id="patch_1">
   <path d="M 0 288 
L 432 288 
L 432 0 
L 0 0 
L 0 288 
z
" style="fill: none"/>
  </g>
  <g id="axes_1">
   <g id="patch_2">
    <path d="M 54 252 
L 388.8 252 
L 388.8 34.56 
L 54 34.56 
z
" style="fill: #ffffff"/>
   </g>
   <g id="PathCollection_1">
    <defs>
     <path id="mba943d98d7" d="M 0 3 
C 0.795609 3 1.55874 2.683901 2.12132 2.12132 
C 2.683901 1.55874 3 0.795609 3 0 
C 3 -0.795609 2.683901 -1.55874 2.12132 -2.12132 
C 1.55874 -2.683901 0.795609 -3 0 -3 
C -0.795609 -3 -1.55874 -2.683901 -2.12132 -2.12132 
C -2.683901 -1.55874 -3 -0.795609 -3 0 
C -3 0.795609 -2.683901 1.55874 -2.12132 2.12132 
C -1.55874 2.683901 -0.795609 3 0 3 
z
" style="stroke: #1f77b4"/>
    </defs>
    <g clip-path="url(#pd100fb3098)">
     <use xlink:href="#mba943d98d7" x="69.218182" y="44.443636" style="fill: #1f77b4; stroke: #1f77b4"/>
     <use xlink:href="#mba943d98d7" x="75.429685" y="86.190327" style="fill: #1f77b4; stroke: #1f77b4"/>
     <use xlink:href="#mba943d98d7" x="81.641187" y="98.841089" style="fill: #1f77b4; stroke: #1f77b4"/>
     <use xlink:href="#mba943d98d7" x="87.85269" y="108.010828" style="fill: #1f77b4; stroke: #1f77b4"/>
     <use xlink:href="#mba943d98d7" x="94.064193" y="135.990068" style="fill: #1f77b4; stroke: #1f77b4"/>
     <use xlink:href="#mba943d98d7" x="100.275696" y="142.919104" style="fill: #1f77b4; stroke: #1f77b4"/>
     <use xlink:href="#mba943d98d7" x="106.487199" y="131.520242" style="fill: #1f77b4; stroke: #1f77b4"/>
     <use xlink:href="#mba943d98d7" x="112.698701" y="174.878523" style="fill: #1f77b4; stroke: #1f77b4"/>
     <use xlink:href="#mba943d98d7" x="118.910204" y="170.810472" style="fill: #1f77b4; stroke: #1f77b4"/>
     <use xlink:href="#mba943d98d7" x="125.121707" y="150.375417" style="fill: #1f77b4; stroke: #1f77b4"/>
     <use xlink:href="#mba943d98d7" x="131.33321" y="148.994189" style="fill: #1f77b4; stroke: #1f77b4"/>
     <use xlink:href="#mba943d98d7" x="137.544712" y="146.333225" style="fill: #1f77b4; stroke: #1f77b4"/>
     <use xlink:href="#mba943d98d7" x="143.756215" y="153.157872" style="fill: #1f77b4; stroke: #1f77b4"/>
     <use xlink:href="#mba943d98d7" x="149.967718" y="188.04326" style="fill: #1f77b4; stroke: #1f77b4"/>
     <use xlink:href="#mba943d98d7" x="156.179221" y="214.512185" style="fill: #1f77b4; stroke: #1f77b4"/>
     <use xlink:href="#mba943d98d7" x="162.390724" y="229.091518" style="fill: #1f77b4; stroke: #1f77b4"/>
     <use xlink:href="#mba943d98d7" x="168.602226" y="205.121209" style="fill: #1f77b4; stroke: #1f77b4"/>
     <use xlink:href="#mba943d98d7" x="174.813729" y="196.651847" style="fill: #1f77b4; stroke: #1f77b4"/>
     <use xlink:href="#mba943d98d7" x="181.025232" y="207.846959" style="fill: #1f77b4; stroke: #1f77b4"/>
     <use xlink:href="#mba943d98d7" x="187.236735" y="204.263197" style="fill: #1f77b4; stroke: #1f77b4"/>
     <use xlink:href="#mba943d98d7" x="193.448237" y="196.229655" style="fill: #1f77b4; stroke: #1f77b4"/>
     <use xlink:href="#mba943d98d7" x="199.65974" y="197.895884" style="fill: #1f77b4; stroke: #1f77b4"/>
     <use xlink:href="#mba943d98d7" x="205.871243" y="209.184149" style="fill: #1f77b4; stroke: #1f77b4"/>
     <use xlink:href="#mba943d98d7" x="212.082746" y="205.034121" style="fill: #1f77b4; stroke: #1f77b4"/>
     <use xlink:href="#mba943d98d7" x="218.294249" y="181.636254" style="fill: #1f77b4; stroke: #1f77b4"/>
     <use xlink:href="#mba943d98d7" x="224.505751" y="228.146194" style="fill: #1f77b4; stroke: #1f77b4"/>
     <use xlink:href="#mba943d98d7" x="230.717254" y="211.296294" style="fill: #1f77b4; stroke: #1f77b4"/>
     <use xlink:href="#mba943d98d7" x="236.928757" y="217.910529" style="fill: #1f77b4; stroke: #1f77b4"/>
     <use xlink:href="#mba943d98d7" x="243.14026" y="242.116364" style="fill: #1f77b4; stroke: #1f77b4"/>
     <use xlink:href="#mba943d98d7" x="249.351763" y="198.489738" style="fill: #1f77b4; stroke: #1f77b4"/>
     <use xlink:href="#mba943d98d7" x="255.563265" y="175.726426" style="fill: #1f77b4; stroke: #1f77b4"/>
     <use xlink:href="#mba943d98d7" x="261.774768" y="197.699524" style="fill: #1f77b4; stroke: #1f77b4"/>
     <use xlink:href="#mba943d98d7" x="267.986271" y="176.894994" style="fill: #1f77b4; stroke: #1f77b4"/>
     <use xlink:href="#mba943d98d7" x="274.197774" y="192.127704" style="fill: #1f77b4; stroke: #1f77b4"/>
     <use xlink:href="#mba943d98d7" x="280.409276" y="199.864715" style="fill: #1f77b4; stroke: #1f77b4"/>
     <use xlink:href="#mba943d98d7" x="286.620779" y="158.988332" style="fill: #1f77b4; stroke: #1f77b4"/>
     <use xlink:href="#mba943d98d7" x="292.832282" y="186.023644" style="fill: #1f77b4; stroke: #1f77b4"/>
     <use xlink:href="#mba943d98d7" x="299.043785" y="158.014447" style="fill: #1f77b4; stroke: #1f77b4"/>
     <use xlink:href="#mba943d98d7" x="305.255288" y="141.18965" style="fill: #1f77b4; stroke: #1f77b4"/>
     <use xlink:href="#mba943d98d7" x="311.46679" y="174.076959" style="fill: #1f77b4; stroke: #1f77b4"/>
     <use xlink:href="#mba943d98d7" x="317.678293" y="129.736154" style="fill: #1f77b4; stroke: #1f77b4"/>
     <use xlink:href="#mba943d98d7" x="323.889796" y="138.678809" style="fill: #1f77b4; stroke: #1f77b4"/>
     <use xlink:href="#mba943d98d7" x="330.101299" y="89.296585" style="fill: #1f77b4; stroke: #1f77b4"/>
     <use xlink:href="#mba943d98d7" x="336.312801" y="122.682449" style="fill: #1f77b4; stroke: #1f77b4"/>
     <use xlink:href="#mba943d98d7" x="342.524304" y="139.852047" style="fill: #1f77b4; stroke: #1f77b4"/>
     <use xlink:href="#mba943d98d7" x="348.735807" y="114.497774" style="fill: #1f77b4; stroke: #1f77b4"/>
     <use xlink:href="#mba943d98d7" x="354.94731" y="61.660225" style="fill: #1f77b4; stroke: #1f77b4"/>
     <use xlink:href="#mba943d98d7" x="361.158813" y="111.873166" style="fill: #1f77b4; stroke: #1f77b4"/>
     <use xlink:href="#mba943d98d7" x="367.370315" y="62.986784" style="fill: #1f77b4; stroke: #1f77b4"/>
     <use xlink:href="#mba943d98d7" x="373.581818" y="79.748207" style="fill: #1f77b4; stroke: #1f77b4"/>
    </g>
   </g>
   <g id="matplotlib.axis_1">
    <g id="xtick_1">
     <g id="line2d_1">
      <defs>
       <path id="mc0251c5881" d="M 0 0 
L 0 3.5 
" style="stroke: #000000; stroke-width: 0.8"/>
      </defs>
      <g>
       <use xlink:href="#mc0251c5881" x="69.218182" y="252" style="stroke: #000000; stroke-width: 0.8"/>
      </g>
     </g>
     <g id="text_1">
      <!-- −2.0 -->
      <g transform="translate(57.076776 266.598437)scale(0.1 -0.1)">
       <defs>
        <path id="DejaVuSans-2212" d="M 678 2272 
L 4684 2272 
L 4684 1741 
L 678 1741 
L 678 2272 
z
" transform="scale(0.015625)"/>
        <path id="DejaVuSans-32" d="M 1228 531 
L 3431 531 
L 3431 0 
L 469 0 
L 469 531 
Q 828 903 1448 1529 
Q 2069 2156 2228 2338 
Q 2531 2678 2651 2914 
Q 2772 3150 2772 3378 
Q 2772 3750 2511 3984 
Q 2250 4219 1831 4219 
Q 1534 4219 1204 4116 
Q 875 4013 500 3803 
L 500 4441 
Q 881 4594 1212 4672 
Q 1544 4750 1819 4750 
Q 2544 4750 2975 4387 
Q 3406 4025 3406 3419 
Q 3406 3131 3298 2873 
Q 3191 2616 2906 2266 
Q 2828 2175 2409 1742 
Q 1991 1309 1228 531 
z
" transform="scale(0.015625)"/>
        <path id="DejaVuSans-2e" d="M 684 794 
L 1344 794 
L 1344 0 
L 684 0 
L 684 794 
z
" transform="scale(0.015625)"/>
        <path id="DejaVuSans-30" d="M 2034 4250 
Q 1547 4250 1301 3770 
Q 1056 3291 1056 2328 
Q 1056 1369 1301 889 
Q 1547 409 2034 409 
Q 2525 409 2770 889 
Q 3016 1369 3016 2328 
Q 3016 3291 2770 3770 
Q 2525 4250 2034 4250 
z
M 2034 4750 
Q 2819 4750 3233 4129 
Q 3647 3509 3647 2328 
Q 3647 1150 3233 529 
Q 2819 -91 2034 -91 
Q 1250 -91 836 529 
Q 422 1150 422 2328 
Q 422 3509 836 4129 
Q 1250 4750 2034 4750 
z
" transform="scale(0.015625)"/>
       </defs>
       <use xlink:href="#DejaVuSans-2212"/>
       <use xlink:href="#DejaVuSans-32" x="83.789062"/>
       <use xlink:href="#DejaVuSans-2e" x="147.412109"/>
       <use xlink:href="#DejaVuSans-30" x="179.199219"/>
      </g>
     </g>
    </g>
    <g id="xtick_2">
     <g id="line2d_2">
      <g>
       <use xlink:href="#mc0251c5881" x="107.263636" y="252" style="stroke: #000000; stroke-width: 0.8"/>
      </g>
     </g>
     <g id="text_2">
      <!-- −1.5 -->
      <g transform="translate(95.12223 266.598437)scale(0.1 -0.1)">
       <defs>
        <path id="DejaVuSans-31" d="M 794 531 
L 1825 531 
L 1825 4091 
L 703 3866 
L 703 4441 
L 1819 4666 
L 2450 4666 
L 2450 531 
L 3481 531 
L 3481 0 
L 794 0 
L 794 531 
z
" transform="scale(0.015625)"/>
        <path id="DejaVuSans-35" d="M 691 4666 
L 3169 4666 
L 3169 4134 
L 1269 4134 
L 1269 2991 
Q 1406 3038 1543 3061 
Q 1681 3084 1819 3084 
Q 2600 3084 3056 2656 
Q 3513 2228 3513 1497 
Q 3513 744 3044 326 
Q 2575 -91 1722 -91 
Q 1428 -91 1123 -41 
Q 819 9 494 109 
L 494 744 
Q 775 591 1075 516 
Q 1375 441 1709 441 
Q 2250 441 2565 725 
Q 2881 1009 2881 1497 
Q 2881 1984 2565 2268 
Q 2250 2553 1709 2553 
Q 1456 2553 1204 2497 
Q 953 2441 691 2322 
L 691 4666 
z
" transform="scale(0.015625)"/>
       </defs>
       <use xlink:href="#DejaVuSans-2212"/>
       <use xlink:href="#DejaVuSans-31" x="83.789062"/>
       <use xlink:href="#DejaVuSans-2e" x="147.412109"/>
       <use xlink:href="#DejaVuSans-35" x="179.199219"/>
      </g>
     </g>
    </g>
    <g id="xtick_3">
     <g id="line2d_3">
      <g>
       <use xlink:href="#mc0251c5881" x="145.309091" y="252" style="stroke: #000000; stroke-width: 0.8"/>
      </g>
     </g>
     <g id="text_3">
      <!-- −1.0 -->
      <g transform="translate(133.167685 266.598437)scale(0.1 -0.1)">
       <use xlink:href="#DejaVuSans-2212"/>
       <use xlink:href="#DejaVuSans-31" x="83.789062"/>
       <use xlink:href="#DejaVuSans-2e" x="147.412109"/>
       <use xlink:href="#DejaVuSans-30" x="179.199219"/>
      </g>
     </g>
    </g>
    <g id="xtick_4">
     <g id="line2d_4">
      <g>
       <use xlink:href="#mc0251c5881" x="183.354545" y="252" style="stroke: #000000; stroke-width: 0.8"/>
      </g>
     </g>
     <g id="text_4">
      <!-- −0.5 -->
      <g transform="translate(171.213139 266.598437)scale(0.1 -0.1)">
       <use xlink:href="#DejaVuSans-2212"/>
       <use xlink:href="#DejaVuSans-30" x="83.789062"/>
       <use xlink:href="#DejaVuSans-2e" x="147.412109"/>
       <use xlink:href="#DejaVuSans-35" x="179.199219"/>
      </g>
     </g>
    </g>
    <g id="xtick_5">
     <g id="line2d_5">
      <g>
       <use xlink:href="#mc0251c5881" x="221.4" y="252" style="stroke: #000000; stroke-width: 0.8"/>
      </g>
     </g>
     <g id="text_5">
      <!-- 0.0 -->
      <g transform="translate(213.448438 266.598437)scale(0.1 -0.1)">
       <use xlink:href="#DejaVuSans-30"/>
       <use xlink:href="#DejaVuSans-2e" x="63.623047"/>
       <use xlink:href="#DejaVuSans-30" x="95.410156"/>
      </g>
     </g>
    </g>
    <g id="xtick_6">
     <g id="line2d_6">
      <g>
       <use xlink:href="#mc0251c5881" x="259.445455" y="252" style="stroke: #000000; stroke-width: 0.8"/>
      </g>
     </g>
     <g id="text_6">
      <!-- 0.5 -->
      <g transform="translate(251.493892 266.598437)scale(0.1 -0.1)">
       <use xlink:href="#DejaVuSans-30"/>
       <use xlink:href="#DejaVuSans-2e" x="63.623047"/>
       <use xlink:href="#DejaVuSans-35" x="95.410156"/>
      </g>
     </g>
    </g>
    <g id="xtick_7">
     <g id="line2d_7">
      <g>
       <use xlink:href="#mc0251c5881" x="297.490909" y="252" style="stroke: #000000; stroke-width: 0.8"/>
      </g>
     </g>
     <g id="text_7">
      <!-- 1.0 -->
      <g transform="translate(289.539347 266.598437)scale(0.1 -0.1)">
       <use xlink:href="#DejaVuSans-31"/>
       <use xlink:href="#DejaVuSans-2e" x="63.623047"/>
       <use xlink:href="#DejaVuSans-30" x="95.410156"/>
      </g>
     </g>
    </g>
    <g id="xtick_8">
     <g id="line2d_8">
      <g>
       <use xlink:href="#mc0251c5881" x="335.536364" y="252" style="stroke: #000000; stroke-width: 0.8"/>
      </g>
     </g>
     <g id="text_8">
      <!-- 1.5 -->
      <g transform="translate(327.584801 266.598437)scale(0.1 -0.1)">
       <use xlink:href="#DejaVuSans-31"/>
       <use xlink:href="#DejaVuSans-2e" x="63.623047"/>
       <use xlink:href="#DejaVuSans-35" x="95.410156"/>
      </g>
     </g>
    </g>
    <g id="xtick_9">
     <g id="line2d_9">
      <g>
       <use xlink:href="#mc0251c5881" x="373.581818" y="252" style="stroke: #000000; stroke-width: 0.8"/>
      </g>
     </g>
     <g id="text_9">
      <!-- 2.0 -->
      <g transform="translate(365.630256 266.598437)scale(0.1 -0.1)">
       <use xlink:href="#DejaVuSans-32"/>
       <use xlink:href="#DejaVuSans-2e" x="63.623047"/>
       <use xlink:href="#DejaVuSans-30" x="95.410156"/>
      </g>
     </g>
    </g>
   </g>
   <g id="matplotlib.axis_2">
    <g id="ytick_1">
     <g id="line2d_10">
      <defs>
       <path id="m6f097e1331" d="M 0 0 
L -3.5 0 
" style="stroke: #000000; stroke-width: 0.8"/>
      </defs>
      <g>
       <use xlink:href="#m6f097e1331" x="54" y="246.893277" style="stroke: #000000; stroke-width: 0.8"/>
      </g>
     </g>
     <g id="text_10">
      <!-- 0 -->
      <g transform="translate(40.6375 250.692496)scale(0.1 -0.1)">
       <use xlink:href="#DejaVuSans-30"/>
      </g>
     </g>
    </g>
    <g id="ytick_2">
     <g id="line2d_11">
      <g>
       <use xlink:href="#m6f097e1331" x="54" y="212.255999" style="stroke: #000000; stroke-width: 0.8"/>
      </g>
     </g>
     <g id="text_11">
      <!-- 1 -->
      <g transform="translate(40.6375 216.055218)scale(0.1 -0.1)">
       <use xlink:href="#DejaVuSans-31"/>
      </g>
     </g>
    </g>
    <g id="ytick_3">
     <g id="line2d_12">
      <g>
       <use xlink:href="#m6f097e1331" x="54" y="177.618721" style="stroke: #000000; stroke-width: 0.8"/>
      </g>
     </g>
     <g id="text_12">
      <!-- 2 -->
      <g transform="translate(40.6375 181.417939)scale(0.1 -0.1)">
       <use xlink:href="#DejaVuSans-32"/>
      </g>
     </g>
    </g>
    <g id="ytick_4">
     <g id="line2d_13">
      <g>
       <use xlink:href="#m6f097e1331" x="54" y="142.981442" style="stroke: #000000; stroke-width: 0.8"/>
      </g>
     </g>
     <g id="text_13">
      <!-- 3 -->
      <g transform="translate(40.6375 146.780661)scale(0.1 -0.1)">
       <defs>
        <path id="DejaVuSans-33" d="M 2597 2516 
Q 3050 2419 3304 2112 
Q 3559 1806 3559 1356 
Q 3559 666 3084 287 
Q 2609 -91 1734 -91 
Q 1441 -91 1130 -33 
Q 819 25 488 141 
L 488 750 
Q 750 597 1062 519 
Q 1375 441 1716 441 
Q 2309 441 2620 675 
Q 2931 909 2931 1356 
Q 2931 1769 2642 2001 
Q 2353 2234 1838 2234 
L 1294 2234 
L 1294 2753 
L 1863 2753 
Q 2328 2753 2575 2939 
Q 2822 3125 2822 3475 
Q 2822 3834 2567 4026 
Q 2313 4219 1838 4219 
Q 1578 4219 1281 4162 
Q 984 4106 628 3988 
L 628 4550 
Q 988 4650 1302 4700 
Q 1616 4750 1894 4750 
Q 2613 4750 3031 4423 
Q 3450 4097 3450 3541 
Q 3450 3153 3228 2886 
Q 3006 2619 2597 2516 
z
" transform="scale(0.015625)"/>
       </defs>
       <use xlink:href="#DejaVuSans-33"/>
      </g>
     </g>
    </g>
    <g id="ytick_5">
     <g id="line2d_14">
      <g>
       <use xlink:href="#m6f097e1331" x="54" y="108.344164" style="stroke: #000000; stroke-width: 0.8"/>
      </g>
     </g>
     <g id="text_14">
      <!-- 4 -->
      <g transform="translate(40.6375 112.143383)scale(0.1 -0.1)">
       <defs>
        <path id="DejaVuSans-34" d="M 2419 4116 
L 825 1625 
L 2419 1625 
L 2419 4116 
z
M 2253 4666 
L 3047 4666 
L 3047 1625 
L 3713 1625 
L 3713 1100 
L 3047 1100 
L 3047 0 
L 2419 0 
L 2419 1100 
L 313 1100 
L 313 1709 
L 2253 4666 
z
" transform="scale(0.015625)"/>
       </defs>
       <use xlink:href="#DejaVuSans-34"/>
      </g>
     </g>
    </g>
    <g id="ytick_6">
     <g id="line2d_15">
      <g>
       <use xlink:href="#m6f097e1331" x="54" y="73.706886" style="stroke: #000000; stroke-width: 0.8"/>
      </g>
     </g>
     <g id="text_15">
      <!-- 5 -->
      <g transform="translate(40.6375 77.506104)scale(0.1 -0.1)">
       <use xlink:href="#DejaVuSans-35"/>
      </g>
     </g>
    </g>
    <g id="ytick_7">
     <g id="line2d_16">
      <g>
       <use xlink:href="#m6f097e1331" x="54" y="39.069607" style="stroke: #000000; stroke-width: 0.8"/>
      </g>
     </g>
     <g id="text_16">
      <!-- 6 -->
      <g transform="translate(40.6375 42.868826)scale(0.1 -0.1)">
       <defs>
        <path id="DejaVuSans-36" d="M 2113 2584 
Q 1688 2584 1439 2293 
Q 1191 2003 1191 1497 
Q 1191 994 1439 701 
Q 1688 409 2113 409 
Q 2538 409 2786 701 
Q 3034 994 3034 1497 
Q 3034 2003 2786 2293 
Q 2538 2584 2113 2584 
z
M 3366 4563 
L 3366 3988 
Q 3128 4100 2886 4159 
Q 2644 4219 2406 4219 
Q 1781 4219 1451 3797 
Q 1122 3375 1075 2522 
Q 1259 2794 1537 2939 
Q 1816 3084 2150 3084 
Q 2853 3084 3261 2657 
Q 3669 2231 3669 1497 
Q 3669 778 3244 343 
Q 2819 -91 2113 -91 
Q 1303 -91 875 529 
Q 447 1150 447 2328 
Q 447 3434 972 4092 
Q 1497 4750 2381 4750 
Q 2619 4750 2861 4703 
Q 3103 4656 3366 4563 
z
" transform="scale(0.015625)"/>
       </defs>
       <use xlink:href="#DejaVuSans-36"/>
      </g>
     </g>
    </g>
   </g>
   <g id="line2d_17">
    <path d="M 69.218182 78.793095 
L 75.429685 89.632862 
L 81.641187 100.004221 
L 87.85269 109.907171 
L 94.064193 119.341711 
L 100.275696 128.307843 
L 106.487199 136.805565 
L 112.698701 144.834879 
L 118.910204 152.395783 
L 125.121707 159.488278 
L 131.33321 166.112365 
L 137.544712 172.268042 
L 143.756215 177.95531 
L 149.967718 183.174169 
L 156.179221 187.92462 
L 162.390724 192.206661 
L 168.602226 196.020293 
L 174.813729 199.365516 
L 181.025232 202.24233 
L 187.236735 204.650735 
L 193.448237 206.590731 
L 199.65974 208.062317 
L 205.871243 209.065495 
L 212.082746 209.600264 
L 218.294249 209.666624 
L 224.505751 209.264574 
L 230.717254 208.394116 
L 236.928757 207.055249 
L 243.14026 205.247972 
L 249.351763 202.972287 
L 255.563265 200.228192 
L 261.774768 197.015689 
L 267.986271 193.334776 
L 274.197774 189.185455 
L 280.409276 184.567724 
L 286.620779 179.481584 
L 292.832282 173.927035 
L 299.043785 167.904078 
L 305.255288 161.412711 
L 311.46679 154.452935 
L 317.678293 147.02475 
L 323.889796 139.128156 
L 330.101299 130.763153 
L 336.312801 121.929741 
L 342.524304 112.62792 
L 348.735807 102.85769 
L 354.94731 92.619051 
L 361.158813 81.912002 
L 367.370315 70.736545 
L 373.581818 59.092679 
" clip-path="url(#pd100fb3098)" style="fill: none; stroke: #ff0000; stroke-width: 1.5; stroke-linecap: square"/>
   </g>
   <g id="patch_3">
    <path d="M 54 252 
L 54 34.56 
" style="fill: none; stroke: #000000; stroke-width: 0.8; stroke-linejoin: miter; stroke-linecap: square"/>
   </g>
   <g id="patch_4">
    <path d="M 388.8 252 
L 388.8 34.56 
" style="fill: none; stroke: #000000; stroke-width: 0.8; stroke-linejoin: miter; stroke-linecap: square"/>
   </g>
   <g id="patch_5">
    <path d="M 54 252 
L 388.8 252 
" style="fill: none; stroke: #000000; stroke-width: 0.8; stroke-linejoin: miter; stroke-linecap: square"/>
   </g>
   <g id="patch_6">
    <path d="M 54 34.56 
L 388.8 34.56 
" style="fill: none; stroke: #000000; stroke-width: 0.8; stroke-linejoin: miter; stroke-linecap: square"/>
   </g>
  </g>
 </g>
 <defs>
  <clipPath id="pd100fb3098">
   <rect x="54" y="34.56" width="334.8" height="217.44"/>
  </clipPath>
 </defs>
</svg>
